<svg xmlns="http://www.w3.org/2000/svg" width="30" height="38" fill="none" viewBox="0 0 30 38" class="h-6 w-6 md:h-9 md:w-9"><path fill="#FCD0A4" d="M27.844 4.756h-1.943a.647.647 0 00-.647.647v27.195c0 .358-.29.648-.647.648H2.592a.648.648 0 00-.648.647v1.295c0 1.073.87 1.943 1.943 1.943h23.957c1.073 0 1.942-.87 1.942-1.943V6.698c0-1.072-.87-1.942-1.942-1.942z"></path><path fill="#F29334" d="M7.292 1.044L.17 8.814A.635.635 0 000 9.287v23.31c0 1.072.87 1.942 1.943 1.942h22.662c1.073 0 1.943-.87 1.943-1.943V2.813c0-1.073-.87-1.943-1.943-1.943H7.732a.635.635 0 00-.44.175z"></path><path fill="#FCD0A4" d="M22.015 24.825H4.534a.648.648 0 010-1.295h17.482a.648.648 0 010 1.295zM22.334 20.382H4.852a.648.648 0 010-1.295h17.482a.648.648 0 010 1.295zM22.334 16.178H4.852a.648.648 0 010-1.295h17.482a.648.648 0 010 1.295zM22.334 11.974H4.852a.648.648 0 010-1.295h17.482a.648.648 0 010 1.295zM19.426 28.712H7.124a.648.648 0 010-1.295h12.302a.648.648 0 010 1.295z"></path></svg>