<svg xmlns="http://www.w3.org/2000/svg" width="72" height="72" fill="none" viewBox="0 0 72 72" class="h-10 w-10 lg:h-[72px] lg:w-[72px]"><path fill="#EE7673" d="M31.93 23.054a1.62 1.62 0 00-1.512-.782l-13.152 1.016a4.27 4.27 0 00-3.254 1.915l-5.52 8.348a2.946 2.946 0 00-.237 2.828 2.945 2.945 0 002.252 1.727l10.664 1.652a1.619 1.619 0 001.611-.728l9.124-14.273c.33-.517.34-1.176.025-1.703zM48.187 39.311a1.618 1.618 0 00-1.703.025l-14.272 9.123c-.54.345-.826.978-.728 1.611l1.652 10.665c.155 1 .8 1.843 1.726 2.252a2.951 2.951 0 002.828-.238l8.349-5.519a4.27 4.27 0 001.914-3.254l1.016-13.152a1.618 1.618 0 00-.782-1.513z"></path><path fill="#FFCD6B" d="M28.81 52.483c.645.644 1.56.945 2.459.795 13.175-2.203 23.6-13.112 27.57-20.786 4.407-8.52 4.57-17.525 4.34-21.748a2.837 2.837 0 00-2.68-2.68c-4.223-.23-13.227-.066-21.748 4.34-7.674 3.97-18.582 14.396-20.785 27.571-.15.898.15 1.814.795 2.458l10.05 10.05z"></path><path fill="#FDC72E" d="M9.652 53.526c.414 0 .828-.158 1.144-.474l5.284-5.284a1.618 1.618 0 00-2.289-2.29l-5.284 5.285a1.618 1.618 0 001.145 2.763zM20.922 50.322a1.619 1.619 0 00-2.29 0L8.475 60.48a1.618 1.618 0 102.289 2.29l10.159-10.16a1.618 1.618 0 000-2.288zM25.765 55.162a1.619 1.619 0 00-2.288 0l-5.284 5.284a1.618 1.618 0 102.288 2.29l5.284-5.285a1.618 1.618 0 000-2.289z"></path><path fill="#fff" d="M45.842 20.549a4.84 4.84 0 00-3.434 1.42 4.823 4.823 0 00-1.422 3.433c0 1.297.506 2.516 1.422 3.433a4.86 4.86 0 006.867 0 4.824 4.824 0 001.422-3.433 4.823 4.823 0 00-1.422-3.434 4.84 4.84 0 00-3.433-1.42z"></path></svg>