<svg xmlns="http://www.w3.org/2000/svg" width="103" height="70" fill="none" viewBox="0 0 103 70"><g clip-path="url(#clip0_9507_68539)"><mask id="mask0_9507_68539" width="93" height="43" x="5" y="13" maskUnits="userSpaceOnUse" style="mask-type: alpha;"><path fill="#fff" d="M98 13.93H5.836v41.34H98V13.93z"></path></mask><g mask="url(#mask0_9507_68539)"><mask id="mask1_9507_68539" width="94" height="43" x="5" y="13" maskUnits="userSpaceOnUse" style="mask-type: alpha;"><path fill="#fff" d="M98.794 13.93H5.836v41.34h92.958V13.93z"></path></mask><g fill="#fff" mask="url(#mask1_9507_68539)"><path d="M49.533 28.354c-.702-.648-1.05-1.636-1.05-2.954v-5.76c0-.102.029-.187.092-.254a.321.321 0 01.244-.098h1.29c.101 0 .19.034.252.098a.343.343 0 01.097.254v5.76c0 .746.177 1.306.526 1.683.349.377.849.568 1.492.568.647 0 1.143-.19 1.492-.568.35-.377.526-.937.526-1.683v-5.76a.36.36 0 01.096-.254.355.355 0 01.253-.098h1.29c.101 0 .185.034.244.098a.377.377 0 01.093.254v5.76c0 1.318-.35 2.306-1.047 2.954-.698.653-1.678.975-2.939.975-1.265.005-2.249-.322-2.95-.975zM58.68 29.092a.315.315 0 01-.096-.242v-9.21c0-.102.03-.19.092-.254a.321.321 0 01.244-.098h1.093a.45.45 0 01.408.242l4.015 6.281V19.64c0-.102.03-.19.092-.254a.33.33 0 01.248-.098h1.207c.1 0 .189.034.252.098a.343.343 0 01.097.254v9.198c0 .101-.034.19-.097.254a.322.322 0 01-.24.097h-1.11a.452.452 0 01-.42-.241l-3.998-6.142v6.044a.34.34 0 01-.092.242.312.312 0 01-.244.097h-1.206c-.101 0-.181-.034-.244-.097zM68.602 29.092a.315.315 0 01-.097-.242v-9.223c0-.101.034-.186.097-.245a.339.339 0 01.24-.094h1.344c.101 0 .185.03.244.093a.34.34 0 01.093.246v9.223a.34.34 0 01-.093.242.312.312 0 01-.244.097h-1.345a.325.325 0 01-.24-.097zM74.971 29.092a.315.315 0 01-.096-.242v-7.794h-2.598a.34.34 0 01-.24-.098.337.337 0 01-.097-.254v-1.06c0-.101.03-.19.093-.254a.322.322 0 01.244-.098h7.171c.102 0 .19.034.253.098a.361.361 0 01.097.254v1.06c0 .106-.034.19-.097.254a.336.336 0 01-.252.098h-2.582v7.794a.34.34 0 01-.092.242c-.059.068-.143.097-.244.097h-1.32a.326.326 0 01-.24-.097zM81.311 29.092a.315.315 0 01-.096-.242v-9.21c0-.102.029-.19.092-.254a.322.322 0 01.244-.098h6.188c.1 0 .185.034.252.098a.344.344 0 01.097.254v.95a.32.32 0 01-.097.245.37.37 0 01-.252.093h-4.604v2.476h4.293a.34.34 0 01.252.097.344.344 0 01.097.255v.89a.327.327 0 01-.097.245.35.35 0 01-.252.094h-4.293v2.56h4.713c.1 0 .189.03.252.093a.317.317 0 01.097.246v.962a.327.327 0 01-.097.246.37.37 0 01-.252.093h-6.301a.315.315 0 01-.236-.093zM90.055 29.092a.313.313 0 01-.097-.242v-9.21c0-.102.03-.19.092-.254a.322.322 0 01.244-.098h3.422c2.758 0 4.166 1.285 4.225 3.849.017.547.03.915.03 1.102 0 .178-.009.542-.03 1.09-.038 1.317-.391 2.292-1.06 2.92-.668.627-1.698.94-3.093.94h-3.494a.324.324 0 01-.24-.097zm3.661-1.543c.778 0 1.337-.174 1.682-.521.344-.348.529-.928.546-1.742.017-.568.03-.92.03-1.06 0-.148-.01-.5-.03-1.047-.017-.771-.21-1.343-.576-1.704-.365-.364-.941-.547-1.727-.547h-1.712v6.621h1.787zM51.018 41.812c-.714-.67-1.097-1.602-1.143-2.802a47.683 47.683 0 01-.013-1.314c0-.602.005-1.042.013-1.314.038-1.17.42-2.085 1.152-2.75.731-.666 1.732-.997 3.001-.997.862 0 1.602.149 2.224.445.622.297 1.093.666 1.408 1.102.32.441.488.87.505 1.293 0 .085-.03.157-.084.212a.303.303 0 01-.223.085h-1.476a.357.357 0 01-.21-.055.49.49 0 01-.126-.182 1.973 1.973 0 00-.69-.89c-.327-.246-.773-.37-1.332-.37-.656 0-1.169.179-1.538.53-.37.352-.564.903-.585 1.65-.008.275-.012.686-.012 1.245 0 .547.004.963.012 1.246.017.764.215 1.327.589 1.692.374.364.887.547 1.542.547.665 0 1.199-.178 1.598-.539.403-.36.601-.894.601-1.61v-.441h-1.71a.339.339 0 01-.24-.098.315.315 0 01-.097-.241v-.78c0-.093.034-.174.097-.242a.316.316 0 01.24-.097h3.366c.101 0 .19.034.253.097a.345.345 0 01.096.242v1.5c0 .784-.172 1.462-.521 2.043a3.386 3.386 0 01-1.476 1.335c-.634.31-1.378.467-2.232.467-1.27-.005-2.27-.34-2.989-1.01zM60.132 42.575a.321.321 0 01-.097-.242v-9.206c0-.102.03-.187.093-.254a.328.328 0 01.243-.098h3.637c1.152 0 2.051.267 2.699.806.651.538.975 1.3.975 2.292 0 .687-.164 1.268-.492 1.734-.328.466-.786.805-1.375 1.013l2.035 3.607c.03.055.042.11.042.157 0 .085-.03.157-.093.212a.305.305 0 01-.201.085h-1.29c-.152 0-.266-.034-.35-.106a1.068 1.068 0 01-.227-.276l-1.795-3.353h-1.92v3.396a.345.345 0 01-.098.241.337.337 0 01-.252.098h-1.29a.349.349 0 01-.244-.106zm3.83-5.248c.559 0 .983-.123 1.26-.373.282-.25.42-.614.42-1.098 0-.483-.138-.851-.42-1.11-.281-.259-.701-.39-1.26-.39H62.01v2.971h1.95zM70.263 41.842c-.71-.649-1.085-1.62-1.123-2.9a42.37 42.37 0 01-.012-1.203c0-.539.004-.941.013-1.217.037-1.254.42-2.217 1.151-2.886.732-.67 1.715-1.005 2.96-1.005 1.236 0 2.22.335 2.955 1.005.736.67 1.118 1.632 1.156 2.886.017.547.03.954.03 1.217 0 .254-.009.657-.03 1.203-.038 1.285-.412 2.251-1.13 2.9-.716.652-1.712.974-2.981.974-1.282 0-2.279-.326-2.99-.974zm4.477-1.234c.366-.377.56-.958.588-1.742.017-.564.03-.95.03-1.144 0-.216-.009-.598-.03-1.145-.029-.771-.23-1.352-.6-1.733-.375-.382-.867-.572-1.476-.572-.618 0-1.114.19-1.488.572-.374.381-.572.958-.589 1.733a39.9 39.9 0 00-.013 1.145c0 .483.005.864.013 1.144.017.776.215 1.352.585 1.734.37.381.865.572 1.492.572.626.004 1.122-.187 1.488-.564zM80.184 41.841c-.702-.648-1.051-1.636-1.051-2.958v-5.756c0-.102.029-.187.092-.254.059-.068.143-.098.244-.098h1.29a.35.35 0 01.253.098.353.353 0 01.096.254v5.756c0 .746.177 1.305.526 1.682.348.378.85.569 1.492.569.648 0 1.144-.191 1.493-.569.349-.377.525-.936.525-1.682v-5.756c0-.102.034-.187.097-.254a.337.337 0 01.252-.098h1.29c.101 0 .185.034.244.098a.377.377 0 01.093.254v5.756c0 1.322-.35 2.306-1.047 2.958-.698.653-1.677.975-2.938.975-1.266 0-2.25-.326-2.951-.975zM89.331 42.575a.319.319 0 01-.097-.242v-9.206c0-.102.03-.19.093-.254a.328.328 0 01.243-.098h3.763c1.131 0 2.022.267 2.665.806.647.538.967 1.322.967 2.348 0 1.017-.324 1.788-.967 2.314-.647.521-1.534.784-2.665.784h-2.064v3.31a.327.327 0 01-.097.246.373.373 0 01-.252.093h-1.35a.313.313 0 01-.239-.101zm3.926-5.133c.543 0 .955-.127 1.24-.39.286-.259.43-.64.43-1.14 0-.492-.14-.873-.413-1.145-.277-.271-.693-.41-1.257-.41h-2.021v3.085h2.021zM85.426 48.873H61.022v.97h24.404v-.97zM23.963 54.345c2.467.022 4.964-.55 7.314-1.674 6.28-3 9.619-8.062 9.627-15.19V15.358a14.386 14.386 0 00-.736-.02c-1.4.008-2.678.338-3.934.792-5.07 1.822-8.353 6.544-8.34 11.953v10.265c.004 1.649-.24 3.243-.917 4.76-1.8 4.035-5.789 5.913-9.648 5.93-1.417.008-2.82-.216-4.077-.712-2.586-1.026-4.263-2.87-5.583-4.383 0 0 3.809 10.295 16.294 10.401zM39.02 37.48c-.005 3.099-.664 5.803-2.094 8.04-1.433 2.243-3.602 4.07-6.457 5.43a15.18 15.18 0 01-6.52 1.492 15.673 15.673 0 01-6.768-1.5h.156c5.078-.026 9.429-2.725 11.358-7.053.74-1.662 1.089-3.476 1.08-5.548V28.079c-.008-4.616 2.767-8.604 7.088-10.16a12.79 12.79 0 012.153-.572V37.48h.004z"></path><path d="M30.499 28.079c.004 1.352.004 2.704.008 4.06l.013 6.201c.008 2.179-.37 4.09-1.156 5.854-1.631 3.657-4.885 6.222-8.853 7.129 1.122.258 2.274.39 3.434.386a14.482 14.482 0 006.21-1.42c2.727-1.306 4.796-3.04 6.154-5.163 1.353-2.115 1.975-4.688 1.98-7.642V18.262c-.35.094-.778.212-1.178.352-4.023 1.454-6.62 5.167-6.612 9.465zm5.915-7.024V37.48c-.005 2.585-.538 4.81-1.69 6.612-1.165 1.822-2.972 3.327-5.377 4.476-.307.148-.618.28-.933.402a14.35 14.35 0 002.673-3.992c.896-2.014 1.32-4.184 1.312-6.638V28.074a8.031 8.031 0 014.015-7.019z"></path><path d="M30.957 46.813c1.337-.894 2.396-1.937 3.149-3.12 1.076-1.682 1.576-3.776 1.58-6.213V22.467a7.333 7.333 0 00-2.56 5.608v10.257c.009 2.56-.437 4.832-1.379 6.943-.23.53-.496 1.042-.79 1.538zM24.181 45.618c-.18.009-.353.009-.517.013-2.43.013-3.023-.653-3.04-3.23-.029-4.183.017-7.896 0-12.084-.025-5.417-2.51-9.435-7.058-12.186-2.148-1.3-4.498-1.958-7.087-1.945-.101 0-.194 0-.294.004v20.74a9.42 9.42 0 00.138 1.648c.858 4.667 4.952 8.672 9.598 9.473 4.737.822 8.26-2.433 8.26-2.433zM8.244 36.921V18.398c1.518.208 2.897.712 4.25 1.535 2.035 1.233 3.51 2.67 4.503 4.4.992 1.724 1.53 3.687 1.538 5.997v12.084c.009 1.246.181 2.594.883 3.62-.4.072-.82.11-1.27.11-.584.004-1.202-.051-1.891-.166-3.796-.631-7.189-3.98-7.89-7.786a7.056 7.056 0 01-.123-1.271z"></path><path d="M16.39 45.177c.648.106 1.22.157 1.758.157h.033c-.328-.958-.446-1.992-.454-2.912V30.33c-.02-4.315-1.845-7.4-5.65-9.698-.98-.594-1.963-1.009-3.022-1.255V36.92c0 .475.054.835.105 1.124.635 3.429 3.808 6.56 7.23 7.133zm-5.246-8.27V22.502c1.547.954 2.627 2.026 3.35 3.268.736 1.267 1.148 2.763 1.156 4.569v12.478c-2.16-.818-4.035-2.975-4.439-5.162a3.936 3.936 0 01-.067-.746z"></path><path d="M14.848 41.502v-11.16c-.012-2.73-.908-4.679-2.88-6.277v12.843c0 .394.047.55.055.602.286 1.547 1.396 3.077 2.825 3.992z"></path></g></g></g><defs><clipPath id="clip0_9507_68539"><path fill="#fff" d="M0 0H92.164V41.338H0z" transform="translate(5.836 13.93)"></path></clipPath></defs></svg>