<svg xmlns="http://www.w3.org/2000/svg" width="103" height="70" fill="none" viewBox="0 0 103 70"><g fill="#fff" clip-path="url(#clip0_9507_68498)"><path d="M29.368 27.533c2.586-.708 4.546-3.239 4.98-6.37l.218-1.552h-4.79c-8.466 0-11.705.87-14.48 3.837a12.589 12.589 0 00-3.185 6.097c-.219 1.033-.328.407-.463-2.858-.163-3.784-.245-4.3-1.09-5.58-1.033-1.552-3.265-2.83-5.499-3.129l-1.414-.191.136 6.695c.109 5.851.245 6.94.897 8.602 1.388 3.51 3.785 5.606 7.948 6.94l1.96.626-3.62.027c-2.775.027-3.973.191-5.063.681-2.203 1.009-3.918 3.786-3.918 6.345v1.007l6.642-.136c7.132-.162 8.437-.407 10.996-2.205 1.689-1.17 3.404-3.62 4.11-5.933l.599-1.905.163 3.43c.162 3.593.463 4.52 1.96 6.125 1.142 1.225 2.45 1.933 4.3 2.259.79.136 1.58.136 1.742 0 .517-.463.027-12.357-.599-14.344-1.116-3.54-3.592-5.99-7.43-7.295l-2.287-.788h2.94c1.661-.03 3.566-.194 4.247-.385zm-6.56 2.287c1.199 1.279 1.689 2.56 1.689 4.573 0 2.07-1.524 4.52-3.159 5.334-4.626 2.179-9.336-.572-9.417-5.416-.082-5.742 6.967-8.656 10.887-4.49zM56.343 33.222c-.709-4.165-3.05-6.723-6.615-7.268-1.689-.245-3.92.272-5.362 1.307l-.98.682v-2.288c0-3.539-1.198-5.715-3.265-5.715h-.817V43.347h1.933c1.824 0 1.878.054 1.878-.844v-.925l.844.762c.463.437 1.443.98 2.15 1.252 1.687.544 4.926.436 6.396-.436 2.911-1.66 4.544-5.878 3.838-9.934zm-6.424 7.214c-1.497.708-2.503.708-3.947 0-1.824-.898-2.64-2.613-2.668-5.47 0-4.03 1.824-6.262 4.927-5.934 2.695.271 4.218 2.45 4.218 6.096 0 2.666-.897 4.546-2.53 5.308zM84.322 43.456c-.245-.027-.653-.49-.953-1.062-.408-.789-.517-2.259-.517-6.587 0-6.205-.272-7.35-2.013-8.601-3.702-2.64-10.86-1.334-12.358 2.232-.817 1.986-.681 2.204 1.335 2.204 1.659 0 1.877-.082 2.394-1.033.735-1.279 2.07-1.824 4-1.633 1.689.192 2.831 1.034 2.831 2.15 0 1.278-1.033 1.797-4.764 2.367-5.009.789-6.341 1.58-6.831 4.219-.49 2.613.844 5.036 3.403 5.851 1.524.544 4.871.299 6.751-.599l1.524-.708.516.735c.626.898 2.395 1.252 3.974.817.6-.16.953-.325.708-.352zm-5.96-4.192c-.192.354-.953.871-1.742 1.198-1.688.682-2.586.682-4.03.054-1.25-.544-1.659-1.47-1.169-2.722.437-1.17 1.09-1.47 4.139-1.933 1.414-.218 2.695-.463 2.857-.572.408-.27.381 3.213-.055 3.975zM89.93 43.81c-4.191-1.007-6.26-4.3-5.988-9.417.218-4.056 1.443-6.205 4.354-7.675 3.62-1.825 9.446-.408 10.86 2.612 1.252 2.695 1.226 2.695-1.062 2.695-1.904 0-2.069-.053-2.287-.87-.272-1.063-2.07-2.232-3.43-2.232-2.586 0-4.3 1.85-4.626 4.98-.272 2.586.109 4.165 1.334 5.553 2.042 2.34 5.28 1.824 6.56-1.034.68-1.552.708-1.579 2.394-1.579.924 0 1.768.11 1.85.272.083.136-.053.98-.327 1.824-1.085 3.728-5.413 5.878-9.631 4.871zM57.621 34.774v-8.655l1.825.109c1.768.109 1.824.136 1.986 1.252l.163 1.142.871-.953c1.034-1.116 2.695-1.878 4.138-1.878 1.034 0 1.034.027 1.034 1.905V29.6h-1.553c-1.224 0-1.797.218-2.721 1.034-1.553 1.36-1.96 3.076-1.96 8.437v4.328h-3.809l.026-8.625z"></path></g><defs><clipPath id="clip0_9507_68498"><path fill="#fff" d="M0 0H98V32.539H0z" transform="translate(2 17.83)"></path></clipPath></defs></svg>