<svg xmlns="http://www.w3.org/2000/svg" fill="none" viewBox="0 0 37 39" class="h-6 w-6 md:h-9 md:w-9"><path stroke="#FFAEAE" stroke-linecap="round" stroke-linejoin="round" stroke-width="2.523" d="M12.66 4.15l5.838 5.913 5.837-5.914"></path><path fill="#F76060" d="M34.193 27.049V15.712c0-4.727-2.744-7.48-7.446-7.48H10.82c-4.78 0-7.462 2.753-7.462 7.48V27.05c0 4.803 2.683 7.477 7.462 7.477h15.926c4.701 0 7.446-2.674 7.446-7.478z"></path><path fill="#fff" d="M20.914 25.16L22.7 24.12c2.302-1.337 2.302-3.533 0-4.87l-1.786-1.042-1.786-1.041c-2.303-1.337-4.187-.253-4.187 2.435v4.166c0 2.674 1.884 3.772 4.187 2.435l1.786-1.042z"></path></svg>