<svg xmlns="http://www.w3.org/2000/svg" width="103" height="70" fill="none" viewBox="0 0 103 70"><g clip-path="url(#clip0_9507_68452)"><mask id="mask0_9507_68452" width="52" height="58" x="26" y="6" maskUnits="userSpaceOnUse" style="mask-type: alpha;"><path fill="#fff" d="M77.545 6.1H26.022v57h51.523v-57z"></path></mask><g mask="url(#mask0_9507_68452)"><path fill="#fff" d="M32.658 56.214c-.085-.269-.33-.873-.398-1.319-.148-.987.369-1.638.843-1.787.532-.148.74.12.946.74.266.946.296 2.186.206 3.96-.116 2.425-1.33 5.352-4.344 5.292-2.602-.057-3.754-1.743-3.873-4.315-.057-1.212.03-2.424.532-4.138.266-.917.504-1.244 1.33-1.42.65-.119.59.56.444 1.361-.324 1.773-.474 2.63-.355 4.64.116 2.13 1.094 2.957 2.158 2.957 1.597.03 2.306-1.3 2.603-3.223.234-1.537.057-2.276-.092-2.748zm34.039 2.1c.621 0 .8.735.651 1.18-.148.443-.68.948-1.507 1.095-.178-.445-.267-2.276.856-2.276zM55.14 59.316c0-.501-.268-.915-.59-.915-.27 0-.888.294-.888 1.24 0 .742.263 1.094.384 1.245.855-.268 1.094-.979 1.094-1.57zm-9.196-6.03c-.042-.474-.413-.797-.916-.797-.561 0-1.09.589-1.034 1.328.036.488.324.889.889.889.648 0 1.12-.739 1.06-1.42zm4.807 1.736c-.05-.826-.25-1.2-.695-1.169-.589.036-.86 1.888-.74 3.835.076 1.27.265 1.466.442 1.454.325-.02 1.107-2.29.993-4.12zm19.61 3.112c-.365 1.52-1.476 3.756-3.134 3.756-.383 0-1.063-.149-1.063-.533 0-.414 2.603-.471 2.603-2.453 0-.739-.68-1.775-1.686-1.775-1.33 0-2.627 1.45-2.627 3.46 0 1.802 1.119 2.394 2.242 2.394 1.952 0 3.135-1.598 3.755-2.927.297.887.471 2.927 1.213 2.927.295 0 .503-.148.858-.945.885-1.982 1.743-4.258 2.926-4.258.442 0 .178.8 1.241.8.502 0 .855-.414.855-.89 0-.68-.62-1.21-1.564-1.21-2.78 0-3.37 4.168-3.813 4.168-.74 0-.503-3.34-1.036-3.34-.474-.001-.706.563-.77.826zm-23.648 3.547c.443 0 1.205-.143 1.805-1.104-.343-.761-.588-2.3-.622-2.86-.176-2.867.928-5.562 2.137-5.637.886-.054 1.595.785 1.676 2.144.218 3.57-.971 5.061-1.567 6.348.1.498.947 1.347 1.745 1.347.294 0 .65-.148.74-.268a2.931 2.931 0 01-.12-.857c0-2.069 1.331-3.814 2.485-3.814.916 0 1.448 1.212 1.448 2.012 0 .944-.799 1.715-1.98 2.454.207.205.59.355.916.355 1.687 0 2.569-2.04 3.222-3.904.118-.356.327-.857.74-.857.709 0 1.006 4.671 2.185 4.671.505 0 .917-1.035.917-1.832 0-.592-.207-.651-.207-1.508 0-.946.503-1.743 1.185-1.743.413 0 .563.412.563.913 0 1.893-1.362 5.412-3.37 5.412-1.51 0-1.392-2.602-1.924-2.602-.594 0-1.421 2.63-4.345 2.63-.475 0-.977-.235-1.39-.71-.708.475-1.3.682-1.981.682-1.093 0-1.567-1.124-2.009-1.124-.533 0-1.123 1.153-2.898 1.153-1.42 0-1.656-1.89-2.157-1.89-.445 0-1.124 1.89-1.863 1.89-1.244 0-1.507-3.28-2.603-3.28-.857 0-3.566 3.331-4.3 3.255-.296-.03-.42-.252-.39-.548.042-.409.394-1.504.537-2.021.239-.9.458-1.885.58-2.199.123-.317.45-.543.714-.519.133.013.172.26.214.465.15.73.357 1.476.593 1.476.415 0 1.786-2.631 2.584-2.631.977 0 1.094 4.14 2.424 4.14.444 0 .77-.532 1.065-1.184.03-1.096.326-2.659 1.213-2.659.62 0 .917 1.388.472 2.602-.001 1.447.944 1.802 1.566 1.802z"></path></g><path fill="#fff" d="M67.305 15.323c-.22 0-.534 0-.707-.345-.142-.282-.094-.738-.36-.941.266.078.548.078.768.078.707 0 1.382-.487 1.9-.487.342 0 .452.22.452.44 0 .69-1.393 1.255-2.053 1.255zm.344 1.772c1.63 0 3.123-1.301 3.123-2.446 0-.534-.252-.973-.895-1.052.11.142.156.251.156.502 0 .863-1.314 1.82-2.744 1.82-.518 0-.675.36-.675.549 0 .44.424.627 1.035.627zm-.125.66c.205 1.49 2.462 3.498 3.074 3.45.41-.034.566-1.945.566-3.45 0-.863.047-1.538-.408-1.695-.723 1.46-2.619 1.757-3.232 1.695zM32.217 27.621c.532 0 .423-3.263 1.285-3.263.205 0 .267.204.267.455 0 .737-.36 1.82-.36 2.416 0 .298.078.392.22.392.376 0 1.035-3.593 1.678-3.593.204 0 .297.204.297.408 0 .753-.956 2.918-.956 3.53 0 .094.031.172.11.172.392 0 1.177-1.694 1.427-2.54.141-.44.33-.676.502-.676.157 0 .299.173.299.534 0 .847-.785 2.84-1.475 4.173-.533 1.035-1.364 2.524-1.364 3.356 0 .424.077.863.689 1.396-1.004-.063-1.412-.156-1.788-.94-1.679 3.34 3.09 3.011 1.459 5.975-.299-.532-2.651-1.082-2.651-4.187 0-2.683 2.352-4.252 2.352-5.365a.716.716 0 00-.281-.58c-.519-.44-.534-.8-.942-.8-.297 0-.66.69-.283 1.302.126.204.236.33.236.518 0 .438-.69 1.614-1.176 1.614-.487 0-.863-1.206-.863-3.152 0-1.726.392-3.466.878-3.466.141 0 .188.093.188.22 0 .204-.062.61-.062 1.3 0 .738.172.801.314.801z"></path><path fill="#fff" d="M36.216 32.217c.66 0 1.208-.487 1.208-1.568v-1.6c0-.613.047-1.302.456-1.79-.048.205-.048.424-.048.628 0 1.35.753 2.276.753 3.577 0 .486-.142.753-.517.753-.361 0-.33-.33-.409-.33-.062 0-.156.204-.156.424 0 .33.235.847.893.847.566 0 1.02-.517 1.02-1.098 0-1.41-1.098-2.98-1.098-4.486 0-.659.172-1.098.314-1.443 0 3.122 2.65 5.396 2.65 6.697 0 .299-.22.534-.549.534a.512.512 0 01-.533-.503c0-.11-.016-.14-.063-.14-.093 0-.376.313-.376.722 0 .517.423 1.145 1.207 1.145.894 0 1.38-.754 1.38-1.428 0-1.646-3.215-4.141-3.215-6.807 0-.456.078-1.193.408-1.757-2.07 1.332-2.713 3.106-2.713 4.659 0 1.349-.047 2.022-.738 2.022-.36 0-.455-.328-.58-.328-.094 0-.142.282-.142.36.001.58.425.91.848.91zM59.982 14.554c.2-.133 1.084.078 2.227-.487a.85.85 0 01.407-.109c.55 0 .41.627.912.627.39 0 .894-.33 1.193-.33.467 0 1.142 1.476 1.142 2.166 0 .8-1.206 1.286-2.634 1.286-2.085 0-3.341-1.82-3.341-2.996 0-.094.048-.126.094-.157zm3.42 1.992c.69 0 1.209-.313 1.209-.502 0-.062-.094-.11-.299-.11-.204 0-.612-.015-1.381-.14-.66-.11-1.162-.361-1.35-.361-.063 0-.095.03-.095.078 0 .408.754 1.035 1.916 1.035zM36.546 38.13c-.518.126-1.35.94-1.35 2.228 0 1.537 1.648 3.906 4.361 3.906 2.29 0 2.855-1.584 2.855-2.652 0-2.368-1.458-4.031-3.356-4.031-1.036 0-1.962.753-1.962 1.866 0 1.036.785 2.589 2.651 2.589.879 0 1.396-.629 1.396-1.348 0-.707-.643-1.678-1.584-1.678-.283 0-.486.186-.486.485 0 .376.517.753 1.16.753a.84.84 0 00.346-.063c.03.048.047.126.047.189 0 .361-.346.58-.879.58-.8 0-1.568-.595-1.568-1.538 0-.563.486-.971 1.192-.971 1.396 0 2.227 1.239 2.227 2.479 0 1.112-.611 1.757-1.866 1.757-2.51 0-3.733-2.26-3.184-4.55zM54.451 47.321c.753 0 .713-.063.95-.063.234 0 .25.142.25.236 0 .345-.77.769-2.134.769-.8 0-1.286-.424-1.427-.895-.784.502-1.976.958-3.153.958-3.215 0-4.03-1.398-5.035-1.851-.769-.346-1.945.33-3.592-1.506.22.047.518.063.753.063 1.442 0 2.211-.705 2.211-1.835a4.06 4.06 0 00-.032-.438c.44.172 1.445.924 1.68 2.257.03.157.674.298 1.082.298.565 0 1.286-.236 1.396-1.16 1.883-.157 3.154-1.27 3.42-2.683.674.22 1.443.831 1.631 1.146.267-.094.58-.141.94-.141.503 0 1.068.094 1.742.298.031-.204.063-.455.377-.455.47 0 .345.518.502.814.078.157.471.251.471.566 0 .298-.252.409-.409.409a.695.695 0 01-.189-.032c-.313.11-.33 2.368-1.646 2.368-.972 0-1.866-.8-2.26-1.803-.109-.298-.344-.487-.564-.487-.25 0-.392.047-.69.377-.846.924-2.258 1.724-4 1.724-.533 0-.956-.047-1.067-.047-.063 0-.063.015-.063.03 0 .11.533.535 1.694.535 2.761 0 3.436-1.554 3.875-1.554.064 0 .25 0 .36.252.644 1.505 2.049 1.85 2.927 1.85zm-1.216-3.135a.63.63 0 00.628.628.63.63 0 000-1.256.63.63 0 00-.628.628zM65.659 36.358c-.22 0-.455.173-.455.597 0 .469.36.768.564.861.11.064.284.127.454.127.456 0 .818-.127.818-.504 0-.484-.708-1.081-1.381-1.081zm-1.693.971c-.33 0-2.151 2.432-3.325 2.432-.282 0-.518-.533-.518-.94 0-.22.14-.377.644-.487 2.697-.612 2.1-2.636 4.405-2.636 1.27 0 2.684.864 2.684 2.808 0 2.071-2.947 4.643-3.387 4.643-.361 0-.753-.518-.753-.863 0-.11.047-.25.36-.376 1.505-.597 2.366-1.977 2.366-2.683 0-.157-.078-.313-.282-.313-.266 0-1.408 2.603-2.68 2.603-.88 0-1.775-.798-1.775-1.175 0-.629 2.544-1.788 2.544-2.668 0-.33-.157-.345-.282-.345zM32.922 16.766s-.455.345-1.02.345c-.673 0-1.207-.502-1.207-1.208 0-.487.251-.988.831-1.24-.015.095-.015.173-.015.267 0 .895.501 1.569 1.411 1.836zm3.357 3.012c-.345.407-.706 1.098-.706 1.803 0 .847.518 1.553 1.318 1.553.768 0 1.13-.659 1.13-1.333 0-1.05-.958-1.789-1.742-2.023zm-5.207.627a.336.336 0 00-.048.173c0 .141.157.298.298.298.125 0 .204-.031.266-.031.377 0 .8.266 1.412.266.36 0 .784-.11 1.317-.376 1.13-.565 1.57-1.96 1.57-2.197 0-.298-.24-.259-.44-.533s-.124-.515-.251-.643c-.073-.074-.298-.078-.58-.11a3.48 3.48 0 00-.346-.016c-.517 0-1.13.064-1.82.503-1.36.868-1.16 2.305-1.378 2.666zm3.686-1.945c.108.148.408.33.408.44 0 .219-.126.502-.377.502-.55 0-.988-.832-.988-1.303 0-.298.173-.329.407-.329.11 0 .158.016.236.063.14.079.14.392.313.627zm-1.444 1.914c-.517 0-1.082-.643-1.082-1.224 0-.313.235-.706.407-.706.063 0 .095.048.11.158.094.768.596 1.208 1.067 1.427.047.03.079.047.079.078 0 .11-.299.267-.581.267zm1.334-3.953c.078-.252.14-.564.14-.91 0-.753-.345-1.898-1.411-1.898-.612 0-1.052.486-1.052 1.067 0 1.24 1.24 1.74 2.323 1.74zm-4.063 6.274c0 1.192.361 1.757 1.004 1.757.502 0 1.176-.361 1.976-1.051-.611.141-1.083.235-1.506.235-.564 0-1.003-.22-1.474-.94zm.55-1.396c-.016.079-.016.157-.016.235 0 .737.391 1.145.91 1.145.39 0 .846-.235 1.253-.753a3.295 3.295 0 01-.565.047c-.58 0-1.207-.156-1.583-.674zm3.842-.22c-.361.094-1.114.534-1.114 1.318 0 .564.439.926.988.926.283 0 .486-.064.612-.157-.439-.424-.596-.895-.596-1.365 0-.33.047-.533.11-.721zm.565-4.297a.63.63 0 00.627.628.63.63 0 00.628-.628.63.63 0 00-.628-.628.63.63 0 00-.627.628zm.815 1.411a.63.63 0 00.629.628.63.63 0 00.627-.628.63.63 0 00-.627-.627.63.63 0 00-.63.627zM60.83 25.895c0-.313.282-.58.592-.58.346 0 .612.267.612.58 0 .36-.267.612-.612.612a.6.6 0 01-.593-.612zm-5.508-4.831a.63.63 0 00.627.627.63.63 0 00.629-.627.63.63 0 00-.63-.627.63.63 0 00-.626.627zm-.533 2.211c0 .487.407.894.894.894a.904.904 0 00.895-.894.905.905 0 00-.895-.894.904.904 0 00-.894.894zm1.977-1.004a.95.95 0 00.954.957.952.952 0 00.959-.957.952.952 0 00-.959-.956.95.95 0 00-.954.956zm.079-2.039c0 .33.267.598.593.598a.597.597 0 000-1.193.595.595 0 00-.593.595zm2.838-1.505a.596.596 0 101.192 0 .596.596 0 00-1.192 0zm-1.177 1.93a1.01 1.01 0 001.004 1.003c.55 0 1.005-.455 1.005-1.003a1.01 1.01 0 00-1.005-1.004 1.01 1.01 0 00-1.004 1.004zm-1.615 3.67c0 .345.283.627.625.627a.63.63 0 00.629-.627.63.63 0 00-.629-.628.629.629 0 00-.625.628zm2.054-1.256a.63.63 0 00.629.628.63.63 0 00.627-.628.63.63 0 00-.627-.627.63.63 0 00-.629.627zm-.58 2.212c0 .596.486 1.083 1.083 1.083.596 0 1.084-.487 1.084-1.083s-.488-1.082-1.084-1.082c-.597 0-1.083.486-1.083 1.082zm2.26-1.334a.737.737 0 101.473.003.737.737 0 00-1.473-.003zm-.047-1.976c0 .362.299.66.655.66.362 0 .66-.298.66-.66a.663.663 0 00-.66-.658.663.663 0 00-.655.658zM62.176 42.554a4.62 4.62 0 01-2.948 1.02c-.848 0-1.225-.268-1.35-.268-.157 0-.33.157-.503.361-.372.44-.86 1.256-.86 2.15 0 .626.488 1.253 1.394 1.253 2.936 0 5.13-1.835 5.13-3.324 0-.846-.502-1.192-.863-1.192zm-.816-.172c.127-.108.157-.282.157-.456v-.36c0-.456-.688-.721-1.63-.721-1.146 0-1.758.516-1.758.736v.722c0 .299.691.597 1.539.597.675 0 1.287-.173 1.692-.518zm-.126 1.553c.079 0 .172.046.172.33 0 .344-.156.798-.718 1.158-.393.268-.927.488-1.711.502.125-.375.22-.768.22-1.143 0-.126-.016-.22-.032-.361h.205c1.24 0 1.774-.486 1.864-.486zM55.243 24.766c.172 1.333 1.962.659 1.962 2.274 0 .235-.062.581-.062.879 0 .345.03.643.295.643.266 0 .33-.188.33-.44 0-.25-.064-.564-.064-.736 0-.55.393-.675.629-.675.596 0 1.051.612 1.947.612-.205 1.004-2.277.737-2.277 1.835 0 .55.55.674.91.674.33 0 .44-.047.44-.328 0-.158-.032-.33-.032-.44 0-.063.048-.126.127-.126.346 0 2.037 1.287 2.037 1.68 0 .36-1.786.72-2.304.72-.157 0-.189-.11-.189-.172 0-.11.267-.44.267-.627 0-.142-.235-.236-.864-.236-.298 0-.518.032-.518.267 0 .423.69.941.69 1.332 0 .315-.188.503-.69.503-.424 0-1.065-.33-1.065-.879 0-.439.453-.877.453-1.144 0-.079-.06-.205-.248-.205-.582 0-.739 1.537-2.794 1.71.33-.298.61-.627.61-1.3 0-.33-.077-.598-.077-.958 0-.47.22-.706.533-.706.58 0 .863.815 1.24.815.205 0 .424-.188.424-.47 0-1.192-2.29-1.02-2.29-2.698 0-.455.156-1.02.58-1.804zm7.482 4.596c0 .392.126.847.518.847.33 0 .612-.501.612-1.05 0-.628-.11-1.115-.11-1.366 0-.11.048-.156.11-.156.236.015.455.658.707.658.283 0 .704-.518.876-.518.047 0 .063.063.063.078 0 .236-.362.754-.362.958 0 .172.91.203.91.36 0 .236-.954.236-1.408.44-.44.188-.708.423-.708.737s.315.376.754.376c1.048 0 1.786-.564 2.021-.564.047 0 .078.03.078.078 0 .157-.533.675-.533.91 0 .267.973.58.957.737-.015.047-.078.062-.188.062-.173 0-.44-.047-.644-.047-.126 0-.235.016-.283.078-.109.126.032.958-.187.958-.204 0-.738-1.85-1.943-1.85-.173 0-.299.14-.299.376 0 .627.613 1.348 1.194 1.693.263.173.703.346.703.44 0 .188-1.002.016-1.002.33 0 .282.126.706.126.956 0 .079-.016.172-.11.172-.188 0-.644-.862-.864-.862-.188 0-.596.517-.769.517-.047 0-.078-.047-.078-.093 0-.361.581-1.177.581-1.977 0-.377-.047-1.192-.503-1.192-.376 0-.8.596-.989 1.192-.11.345-.031 1.678-.283 1.678-.235 0-.172-.893-.487-.893-.231 0-.733.423-.907.423-.031 0-.063-.016-.063-.047 0-.188.456-.8.456-.926 0-.235-1.036-.266-1.036-.454 0-.11.408-.189.784-.252.798-.141 1.975-.721 1.975-1.536 0-.91-.879-1.303-1.456-1.68-.299-.188-.628-.344-.628-.47 0-.125.376-.125.533-.125.235 0 .468-.016.468-.204 0-.142-.031-.423-.031-.643 0-.157.015-.283.079-.283.235 0 .564.769.722.769.25 0 .596-.628.832-.628.078 0 .11.048.11.188 0 .581-.298 1.24-.298 1.805z"></path><path fill="#fff" d="M55.699 33.706c.722.095.895.345.895.55 0 .345-.314.454-.613.454-.22 0-.47-.047-.737-.047-.346 0-.69.079-.973.408.204.032.502.173.502.488 0 .91-2.525.155-2.525 2.494 0 1.238 1.287 2.588 3.23 2.588 1.006 0 1.65-.33 1.65-.707 0-.297-.534-.094-.534-.345 0-.11.189-.314.189-.488 0-.075-.063-.218-.189-.218-.283 0-.817.454-1.9.454-.847 0-1.678-.485-1.678-1.144 0-.141.063-.22.157-.22s.22.063.33.063c.094 0 .11-.063.11-.235 0-.173 0-.66.297-.66.299 0 .863 1.099 3.03 1.099.718 0 2.115-.14 2.634-.612-.016 1.726-1.367 4-4.19 4-2.932 0-4.501-2.353-4.501-4.518 0-2.4 1.96-4.58 4.643-4.58.69 0 1.271.235 1.271.533 0 .41-1.02.158-1.098.643zm4.816.833c.11.171.157.344.157.5 0 .44-.298.848-.298 1.304 0 .517.392.94.986.94.643 0 1.083-.516 1.083-1.129 0-.832-.754-1.537-1.928-1.615zm-5.193 1.003a.632.632 0 01.204.47c0 .236-.11.487-.11.754a.69.69 0 00.69.705c.44 0 .739-.346.739-.752 0-.596-.614-1.177-1.523-1.177zm2.085-2.667c1.648.314 2.543 1.554 2.543 2.715 0 .8-.502 1.536-1.382 1.536-.8 0-1.378-.549-1.378-1.427 0-.659.514-1.349.514-2.024 0-.266-.078-.533-.297-.8zm.816 2.087c0 .22.157.392.377.392.25 0 .408-.22.408-.47 0-.33-.299-.785-.581-.785-.126 0-.079.188-.11.392-.016.157-.094.345-.094.47zM40.908 18.821c.533 0 1.144-2.886 1.144-3.373 0-.126-.046-.22-.156-.22-.487 0-1.16 2.746-1.16 3.358-.001.11.03.235.172.235zm3.843.863c.391 0 .83-1.507.83-2.448 0-.204-.03-.423-.126-.423-.33 0-.878 1.553-.878 2.4 0 .33.08.47.174.47zm-2.558-1.396c.172 0 .392-.19.8-.643.032-.204.032-.393.032-.628 0-.314-.126-.659-.314-.659-.471 0-.706 1.255-.706 1.585 0 .187.094.345.188.345zm2.15-.643c0-.268-.064-.33-.126-.33-.157 0-.33.188-.58.612.03.564.125.816.282.816.172 0 .423-.55.423-1.098zm1.207-1.852c1.036 0 1.506.895 1.506 1.899 0 .438-.125 1.082-.329 1.082-.204 0-.172-.361-.204-.69-.031-.424-.11-.518-.251-.518-.267 0-.44.627-.44 1.208 0 .36.063.768.345.768a.572.572 0 00.393-.172c-.063.72-.597 1.35-1.35 1.35-1.38 0-1.898-1.617-2.054-2.558-.831.878-1.6 1.522-2.98 1.522-1.286 0-1.867-.942-1.867-1.835 0-.268.094-.957.424-.957.392 0 .047 1.285.816 1.285.188 0 .532-.157.721-.674a2.91 2.91 0 00.173-.925c0-.424-.094-.69-.408-.69-.267 0-.597.203-.706.313.377-1.13 1.286-1.71 2.289-1.71 1.24 0 1.898 1.098 1.898 2.322 0 .172-.015.36-.047.533.534-.878 1.272-1.553 2.071-1.553z"></path><path fill="#fff" d="M42.615 20.012c-.674 0-.705.818-.705 2.463-.503-1.082-1.333-2.243-2.306-2.243-.659 0-.91.44-.91 1.208 0 .157.016.393.047.533.08-.266.33-.376.643-.376.676 0 1.49.517 2.024 1.224-.611-.11-1.208-.22-1.709-.22-.314 0-.596.032-.831.141-.456.204-1.067.879-1.067 1.898 0 .158.016.33.047.518.55-1.224 2.008-1.773 2.949-1.773.189 0 .329.016.44.032-.488.438-.597 1.207-.629 1.725-.015.251-.11.267-.282.267 0 .517.408 1.286.408 1.678 0 .142-.078.267-.157.299 0 .69.69 1.192.69 1.63 0 .11-.03.205-.079.252.048.283.807.757.905.995.12.29.256.338.335.338.267 0 .69-.314.69-.596 0-.094-.08-.204-.141-.251-.299-.22-.456-.69-.581-1.003-.11 0-.252-.047-.302-.232-.086-.324-.09-.93-.216-1.29-.204-.047-.298-.126-.298-.55 0-.203.126-1.004.126-1.287-.094 0-.22-.062-.22-.25 0-.502.503-.894.643-1.537.895.658 1.114 1.332 1.114 1.93 0 .312-.047.61-.11.893.659-.33 1.647-.816 1.647-1.804 0-.58-.267-1.224-2.04-1.475a5.544 5.544 0 011.82-.313c1.005 0 1.585.313 1.71 1.019.204-.313.361-.675.361-1.004 0-.769-.644-1.27-1.459-1.27-.957 0-1.804.501-2.714 1.114.41-.847.69-1.349 1.193-1.349.078 0 .156.016.235.032-.188-.69-.894-1.366-1.27-1.366zM69.045 31.322c.786 0 1.413 1.02 1.413 2.212 0 1.27-.597 2.652-1.66 3.592-.016-2.117-2.608-1.443-2.608-2.98 0-.658.472-1.098 1.037-1.098.503 0 .895.142 1.178.425a1.392 1.392 0 01-.424-1.005c0-.597.377-1.146 1.064-1.146zM55.038 16.42c.41.393.769.565 1.209.565.173 0 .377-.046.488-.046.14 0 .234.062.234.172 0 .173-.157.455-.345.612.188.078.393.11.613.11.89 0 1.91-.565 1.91-1.976.19.25.3.768.3 1.004 0 1.71-1.257 2.368-2.415 2.368-.753 0-1.13-.252-1.226-.252-.297 0-.281.597-.485.581-.362-.062-.69-.862-.69-1.71 0-.502.126-1.035.407-1.427zm2.368-1.144c-.125-.204-.594-.314-.813-.314-.691 0-1.162.486-1.256.926a1.47 1.47 0 01-.11-.534c0-.69.471-1.537 1.618-1.537 1 0 1.393.533 1.535.533.157 0 .314-.157.44-.157.172 0 .172.267.172.456 0 .627-.283 1.71-.989 2.101a1.6 1.6 0 00-.782-.752.248.248 0 01-.157-.236c0-.173.156-.392.342-.486zM44.138 11.856c0 .55 1.96 3.232 2.337 3.232.314 0 .549-.55.549-1.02a.642.642 0 00-.093-.345c-.283-.393-2.275-1.961-2.715-1.961-.047 0-.078.047-.078.094zm-11.53-1.615c0 .314-1.191 1.364-1.614 1.364-.157 0-.205-.188-.205-.36 0-.313.141-.753.314-.895.203-.188.674-.28 1.035-.28.22 0 .47.045.47.17zm14.323.91c0-.942-2.545-2.652-2.574-3.388-.002-.068.034-.135.091-.195.436-.46 2.246-.795 2.246-1.187 0-.203-.377-.203-.565-.203-1.458 0-3.592.533-3.592 1.05 0 .535 1.914 1.837 1.914 2.48 0 .172-.11.235-.283.235-.532 0-1.694-.644-2.242-.644-.251 0-.346.173-.346.425 0 .752.894 2.18.894 2.602 0 .047-.016.11-.079.11-.282 0-1.614-1.568-2.086-1.568-.171 0-.188.235-.188.58v.534c0 .36-.016.58-.187.58-.41 0-.597-1.145-.989-1.145-.408 0-.486 2.039-.878 2.039-.455 0-.063-2.243-.502-2.243-.486 0-1.036 1.49-1.381 1.49-.125 0-.156-.125-.156-.235 0-.455.266-1.192.266-1.63 0-.22-.063-.346-.25-.346-.488 0-1.554.784-1.961.784-.063 0-.142-.031-.142-.094 0-.376 1.71-1.568 1.71-2.102 0-.518-2.354-.172-2.354-.769 0-.501 1.68-1.02 1.68-1.537 0-.455-1.993-.658-2.761-.658-.926 0-1.428.109-1.428.376 0 .408 2.103.534 2.103.894 0 .345-2.181 1.27-2.181 1.804 0 .47 3.074.03 3.074.518 0 .533-2.681 2.838-2.681 3.607 0 .173.125.251.297.251.816 0 2.933-1.553 3.514-1.553.204 0 .22.25.22.47 0 .409-.141 1.036-.141 1.491 0 .36.093.611.407.611.581 0 1.113-.988 1.507-.988.501 0 .203 2.902.956 2.902.643 0 .91-3.137 1.317-3.137.409 0 .739.91 1.115.91.47 0 .25-1.584.753-1.584.548 0 2.117 1.882 2.823 1.882.22 0 .297-.173.297-.393 0-.831-1.16-2.713-1.16-3.309 0-.156.046-.204.219-.204.612 0 2.4.847 3.247.847.285 0 .457-.156.457-.36zm-1.632-3.106c0 .282.988.894 1.443.894.267 0 .345-.361.345-.738 0-.47-.203-.486-.612-.486-.517 0-1.176.142-1.176.33zm-3.687-1.6c0-.095-.47-.19-1.113-.19-1.02 0-.878.85-1.663.85-.815 0-.612-.88-1.647-.88-.628 0-1.207.11-1.207.25 0 .19.736.11.736.63 0 .548-1.584.705-1.584 1.034 0 .11.125.157.282.157.346 0 .894-.157 1.287-.157.22 0 .423.047.423.25 0 .393-.847 1.1-.847 1.413 0 .094.078.126.156.126.315 0 .848-.8 1.35-.8.831 0 .283 1.772.737 1.772.47 0 .267-1.742.941-1.742.55 0 .957 1.208 1.334 1.208.094 0 .172-.078.172-.188 0-.329-.47-1.004-.47-1.443 0-.267.188-.393.439-.393.36 0 .847.22 1.113.22.093 0 .188-.031.188-.14 0-.377-1.395-.785-1.395-1.27 0-.488.768-.488.768-.707zM69.42 8.986c0 1.396-1.016 2.462-2.854 2.76.205.016.393.016.582.016 2.147 0 2.933-.972 2.933-1.787 0-.456-.252-.863-.66-.989zm-2.65 1.584c0-1.114-2.664-1.396-2.664-1.647 0-.203 1.488-.55 2.257-.565-1.177-1.505-2.853-1.348-2.853-1.615 0-.157 1.255-.471 2.414-.471.973 0 1.883.22 1.883.957 0 .408-.33.832-.33 1.459 0 .345.172.643.628.643.488 0 .597-.517.597-1.067 0-.454-.078-.8-.078-1.02 0-.658.451-1.097 1.095-1.097.534 0 .66.234 1.445.234-.425.252-.581.707-.581.926 0 .66.424 1.114.424 2.464 0 2.477-2.32 3.355-5.161 3.355-.78 0-1.614-.062-2.43-.187-.126-.016-.157-.047-.157-.126 0-.204 1.115-.314 1.115-1.317 0-.393-.126-.769-.126-.91 0-.078.063-.126.126-.126.235 0 .707.91 1.583.91.232 0 .814-.079.814-.8zm2.557-3.466c0 .219.172.391.392.391.22 0 .393-.172.393-.391a.39.39 0 00-.393-.393.389.389 0 00-.392.393zM67.933 21.597c0-.33-.833-.36-.91-1.286-.017-.141-.064-.392-.237-.392-.282 0-.063.863-.376.863-.722 0-.957-1.412-1.224-1.412-.063 0-.138.047-.138.235 0 .173.032.283.032.486 0 .204-.048.346-.236.346-.424 0-.8-.989-1.162-.989-.078 0-.156.047-.156.126 0 .188.313.533.313.706 0 .377-1.02.172-1.02.486 0 .142.14.188.33.188.33 0 .847-.14 1.114-.14.157 0 .392.03.392.234 0 .22-.565.502-.565.706 0 .094.094.14.173.14.424 0 1.174-.736 1.707-.736.094 0 .33.047.33.188 0 .204-.534.564-.534.863 0 .078.048.172.142.172.28 0 .658-.737 1.192-.737.204 0 .502.079.66.079.126 0 .173-.079.173-.126zm.408 7.608c.251-.784.566-1.334 1.08-2.18-.514-.267-1.881-.832-1.881-1.758 0-1.082 1.35-1.929 1.63-1.929.125 0 .156.11.156.314 0 .564-.267 1.474-.267 1.96 0 .44.283.864.534.864.267 0 1.004-.941 1.004-1.867 0-1.663-1.46-2.165-1.911-2.165-.424 0-1.193.69-2.998.69-3.372 0-4.141-3.34-4.141-4.8 0-.062.015-.078.03-.078.08 0 .41.408 1.476.408.55 0 1.052-.141 1.853-.141 1.88 0 2.712 1.303 3.874 2.964.702.439 2.383 1.145 2.383 3.138 0 1.756-1.868 2.729-2.32 4.611.718-.078 1.142-1.365 1.88-1.365.377 0 .55.299.55.77 0 .69-.394 1.725-1.147 2.368.015-.063.015-.142.015-.236 0-.438-.172-1.065-.675-1.065-.781 0-1.032.846-1.471 1.552-.456-1.6-1.068-3.044-2.166-3.922-1.11-.894-3.027-.408-3.027-2.039 0-.44.283-1.067.283-1.569 0-.172-.031-.33-.126-.455 1.507.565.973 1.568 1.9 2.604.578.66 2.179 1.287 3.104 4 .016-.078.032-.282.032-.423 0-2.322-3.074-4.597-3.34-5.538 1.785.204 2.099.644 2.946 2.997.174.486.74 1.694.74 2.29z"></path><path fill="#fff" d="M59.762 12.61c-1.1 0-1.82-.55-1.82-.832 0-.142.093-.235.22-.235.344 0 1.098.533 1.348.533.064 0 .11-.031.11-.126 0-.282-.266-.752-.266-.987 0-.063.047-.11.14-.11.424 0 1.052.173 1.383.173.11 0 .14-.063.14-.126 0-.345-1.02-1.02-1.02-1.224 0-.188 1.268-.471 1.268-.768 0-.314-1.724-.094-1.724-.393 0-.22.33-.596.33-.768 0-.079-.063-.11-.172-.11-.142 0-.895.298-1.21.298-.156 0-.345-.031-.345-.251 0-.361.612-.753 1.57-.753 1.55 0 2.478 1.067 2.478 2.855 0 2.259-1.582 2.823-2.43 2.823zm-3.058-2.98c0-.174-.613-.503-.613-.69 0-.032.03-.048.078-.048.174 0 .472.063.708.063.204 0 .235-.879.39-.879.11 0 .297.832.471.832.203 0 .58-.236.737-.236.031 0 .063.016.063.048 0 .11-.392.532-.392.658 0 .141.879.314.879.44 0 .157-.895.14-.895.282 0 .109.33.549.33.69 0 .032-.017.047-.048.047-.126 0-.612-.22-.753-.22-.173 0-.452.643-.593.643-.047 0-.079-.063-.079-.141l-.031-.627c0-.063-.03-.126-.11-.126-.189 0-.55-.016-.66-.016-.079 0-.11-.015-.11-.047 0-.125.628-.564.628-.674zm-.456 2.57c.252 0 .299.613.347.973.03.19.062.204.14.204.19 0 .487-.72.689-.72.297 0 1.099.83 2.433.83 1.896 0 3.686-1.333 3.686-3.685 0-2.275-1.602-3.608-3.812-3.608-1.051 0-1.822.517-2.23.517-.247.016-.624-.61-.813-.61-.078 0-.157.155-.157.422 0 .173 0 .721-.188.721-.378 0-1.836-1.081-1.836-.69 0 .361.972 1.46.972 1.742 0 .282-.956.55-.956.737 0 .345 1.019.408 1.019.847 0 .44-1.067.784-1.067 1.114 0 .266 1.067.079 1.067.408 0 .329-.784 1.427-.784 1.74 0 .079.015.079.077.079.299 0 1.193-1.02 1.413-1.02zM49.142 39.746a.72.72 0 01-.173.454c-.172-.313-.659-.47-.879-.47-1.615 0-1.004 2.338-2.729 2.338-.721 0-.784-.094-1.05-.094-.11 0-.173.047-.173.14 0 .41.58 1.413 2.196 1.413 1.615 0 3.169-.988 3.169-2.213 0-.204-.047-.422-.141-.642.062-.094.22-.157.36-.157.251 0 .393.284.628.284a.43.43 0 00.44-.44c0-.205-.11-.345-.298-.44a.54.54 0 00.22-.424c0-.267-.19-.517-.504-.517-.14 0-.234.048-.344.155-.03-.28-.188-.547-.487-.547-.235 0-.408.172-.408.44 0 .248.173.453.173.72z"></path><path fill="#fff" d="M40.546 36.83c1.255.311 1.882.986 2.007 1.787.126.768.282 1.396.58 1.709.392.44 1.161.83 1.836.83.565 0 1.019-.186 1.019-.704 0-.566-.768-1.836-1.898-1.836-.11 0-.25.016-.408.016-.141 0-.345-.03-.47-.141-.25-.22-.33-1.397-.8-2.102-.517-.785-1.082-1.005-1.85-1.005-.549 0-1.162.298-1.162.737 0 .269.142.456 1.146.708zm4.376 3.512c-.471 0-1.177-.503-1.177-.785 0-.236.22-.361.392-.361.392 0 1.097.487 1.097.895.001.11-.078.251-.312.251z"></path><path fill="#fff" d="M43.479 28.123c0-1.004 2.385-1.537 2.385-2.777 0-.204-.079-.564-.22-.831.83.454 1.443 1.224 1.443 1.85 0 1.083-1.13 1.585-1.13 2.26 0 .784 1.208.91 1.208 1.882 0 .8-1.145 1.725-1.145 2.76 0 .8.565 1.459 1.427 1.569a3.62 3.62 0 01-.8.11c-1.585 0-3.216-1.302-3.216-2.855 0-.769.33-1.442.83-1.929.441.377.88.627 1.162.627.25 0 .362-.125.362-.313 0-.581-2.306-1.114-2.306-2.353zm5.004 7.921c-.538.246-.753.204-.753.754 0 .203-.047.469-.047.61 0 .189.031.299.25.299.566 0 1.46-.957 1.46-1.773 0-.22-.126-.313-.267-.313-.126 0-.266.25-.643.423zm-.063-1.13c0-.705-1.459-.721-1.459-1.788 0-.267.172-.721.518-1.208.142.815.47 1.24 1.177 1.507 1.395.516 1.584 1.3 1.584 2.133 0 1.412-.989 3.169-3.53 3.169-2.04 0-3.498-1.82-3.498-3.358 0-.424.11-.894.376-.894.236 0 .314.188.502.376.707.707 1.475.894 2.589.894 1.004 0 1.741-.407 1.741-.83zM37.31 35.254a.596.596 0 11-1.184.138.597.597 0 111.185-.138zm-2.93.617c.066.536.566.942 1.13.88a1.29 1.29 0 00.518-.157c.125.501.546.824 1.115.75.578-.076.97-.53.908-1.111a1.136 1.136 0 00-.093-.362s.076-.008.133-.018c.567-.108.949-.562.901-1.111-.062-.565-.569-.984-1.096-.919a.987.987 0 00-.52.213c-.141-.47-.583-.879-1.187-.779-.545.09-.906.553-.852 1.14.01.095.032.204.079.313l-.156.023c-.458.068-.955.53-.88 1.138z"></path></g><defs><clipPath id="clip0_9507_68452"><path fill="#fff" d="M0 0H51.524V57H0z" transform="translate(26.021 6.1)"></path></clipPath></defs></svg>