<svg xmlns="http://www.w3.org/2000/svg" width="103" height="70" fill="none" viewBox="0 0 103 70"><path fill="#fff" d="M9 43.875h1.958v.565H9.71v1.053h1.193v.567H9.709v1.685H9v-3.87zM16.012 43.874h.71v3.871h-.71v-3.87zM21.98 43.875h.844l1.287 3.038h.01v-3.038h.644v3.87h-.848l-1.282-3.017h-.01v3.017h-.645v-3.87zM31.811 46.27l-.488-1.809h-.011l-.534 1.81h1.033zm.15.544h-1.33l-.279.931h-.71l1.299-3.87h.776l1.248 3.87h-.732l-.272-.931zM37.842 43.875h.842l1.288 3.038h.01v-3.038h.644v3.87h-.848l-1.282-3.017h-.012v3.017h-.642v-3.87zM48.342 47.662c-.146.077-.488.14-.839.14-1.174 0-1.78-.861-1.78-1.991 0-1.132.606-1.991 1.758-1.991.395 0 .715.105.86.16l-.038.638c-.145-.072-.37-.211-.732-.211-.589 0-1.094.399-1.094 1.404 0 1.003.505 1.402 1.094 1.402.344 0 .571-.083.732-.202l.039.651zM53.4 43.874h2.036v.565H54.11v1.033h1.255v.566H54.11v1.14h1.383v.567H53.4v-3.87zM42.818 36.203c-.984 1.315-2.466 1.974-4.442 1.974h-1.15v-10.95h1.15c1.967 0 3.449.658 4.442 1.975.747.993 1.121 2.158 1.121 3.492 0 1.336-.374 2.504-1.121 3.509zm5.341-7.714a9.725 9.725 0 00-3.497-3.94c-1.55-1.007-3.229-1.511-5.04-1.511h-5.94a1.49 1.49 0 00-1.484 1.476v17.855h7.424a9.165 9.165 0 003.058-.525c1.887-.66 3.438-1.848 4.653-3.56 1.212-1.715 1.819-3.576 1.819-5.59 0-1.444-.331-2.847-.993-4.205zM9.001 42.369h3.534c.825 0 1.493-.669 1.493-1.492l.001-17.84h-3.535a1.49 1.49 0 00-1.493 1.49V42.37zM24.99 31.193c-.406.472-1.156.709-2.243.709h-1.678v-4.817h1.69c1.014 0 1.732.216 2.154.648.42.43.633 1.005.633 1.725 0 .731-.186 1.307-.556 1.735zm-3.921 4.76h3.143c2.474 0 4.244-.74 5.312-2.222.823-1.14 1.233-2.584 1.233-4.33 0-1.773-.51-3.228-1.529-4.37-1.18-1.331-2.909-1.993-5.186-1.993h-6.515a1.49 1.49 0 00-1.485 1.49l-.002 17.84h3.54a1.492 1.492 0 001.489-1.491v-4.924zM64.916 39.028a2.166 2.166 0 00-2.394-1.732c-.478.133-.972.2-1.483.2-1.306 0-2.442-.393-3.403-1.179-1.222-.994-1.832-2.352-1.832-4.076 0-1.732.61-3.096 1.832-4.091.961-.786 2.097-1.177 3.402-1.177.469 0 .922.06 1.362.17a2.166 2.166 0 002.516-1.715l.46-2.351c-1.67-.651-3.175-.977-4.515-.977-2.464 0-4.66.78-6.584 2.337-2.457 1.994-3.684 4.594-3.684 7.804 0 3.201 1.227 5.798 3.684 7.79 1.924 1.558 4.105 2.338 6.542 2.338 1.396 0 2.917-.326 4.56-.977l-.463-2.364z"></path><path fill="#D1D1D1" d="M78.425 25.436v.001c-1.629 0-2.26 1.254-2.305 1.421-6.639 17.298-19.297 20.878-19.297 20.878S76.21 47.22 84 25.436h-5.573z"></path><path fill="#CECECE" d="M85.66 22.12h7.588c-10.44 25.026-36.424 25.616-36.424 25.616s17.774-4.142 26.664-24.2c0 0 .605-1.372 2.172-1.416z"></path><path fill="#fff" d="M79.34 24.925c-7.677 18.896-22.517 22.81-22.517 22.81s23.239-.268 32.103-24.38h-7.209s-1.53-.028-2.377 1.57z"></path><path fill="#fff" d="M81.893 23.855h6.272c-8.987 23.33-31.342 23.88-31.342 23.88s15.239-3.845 22.902-22.46c0 0 .569-1.42 2.168-1.42z"></path></svg>