<svg xmlns="http://www.w3.org/2000/svg" width="72" height="72" fill="none" viewBox="0 0 72 72" class="h-10 w-10 lg:h-[72px] lg:w-[72px]"><mask id="mask0_9494_67788" width="72" height="72" x="0" y="0" maskUnits="userSpaceOnUse" style="mask-type: alpha;"><path fill="#D9D9D9" d="M0 0H72V72H0z"></path></mask><g mask="url(#mask0_9494_67788)"><path fill="#F0766A" fill-rule="evenodd" d="M36.678 17.245a3.936 3.936 0 100-7.872 3.936 3.936 0 000 7.872zm0 3.374a7.31 7.31 0 100-14.619 7.31 7.31 0 000 14.619z" clip-rule="evenodd"></path><path fill="#F0766A" d="M59.623 41.779a4.398 4.398 0 014.397 4.398v9.794c0 2.195-1.456 3.965-3.26 3.965a5.535 5.535 0 01-5.535-5.535v-8.224a4.398 4.398 0 014.398-4.398zM12.42 41.779a4.398 4.398 0 00-4.399 4.398v9.794c0 2.195 1.456 3.965 3.262 3.965a5.535 5.535 0 005.534-5.535v-8.224a4.398 4.398 0 00-4.398-4.398z"></path><path fill="#F79C89" d="M58.052 26.748v33.527a5.553 5.553 0 01-5.553 5.553H19.524a5.553 5.553 0 01-5.553-5.553V26.749c0-7.652 6.202-13.854 13.853-13.854H44.2c7.651 0 13.853 6.202 13.853 13.854z"></path><path fill="#FFF5F5" d="M52.981 42.904v14.474a2.554 2.554 0 01-2.554 2.555H21.613a2.554 2.554 0 01-2.554-2.554V42.904a2.554 2.554 0 012.554-2.555h28.814a2.554 2.554 0 012.554 2.555z"></path><path fill="#F79C89" d="M48.309 45.397v.694a.432.432 0 01-.432.432H24.159a.432.432 0 01-.432-.432v-.694c0-.239.193-.432.432-.432h23.718c.238 0 .432.193.432.432z"></path><path fill="#F9FAFB" d="M43.386 28.458c0 3.58-2.9 6.48-6.48 6.48-3.58 0-6.48-2.9-6.48-6.48 0-3.58 2.9-6.48 6.48-6.48 3.58 0 6.48 2.9 6.48 6.48z"></path></g></svg>