<svg xmlns="http://www.w3.org/2000/svg" width="69" height="40" fill="none" viewBox="0 0 69 40" class="h-10 w-10 lg:h-[72px] lg:w-[72px]"><path fill="#E0D6FF" d="M33.998 39.99c-4.76 0-9.5-.687-13.346-1.935-4.413-1.432-6.65-3.246-6.65-5.391v-16.67c0-1.1.892-1.992 1.992-1.992h36.007c1.1 0 1.992.892 1.992 1.992v16.67c0 2.145-2.237 3.959-6.65 5.39-3.846 1.25-8.586 1.937-13.345 1.937zM61.313 33.284c-1.23 0-2.229-.414-2.229-.926V14.145c0-.511.998-.926 2.23-.926 1.23 0 2.229.415 2.229.926v18.213c0 .512-.998.926-2.23.926z"></path><path fill="#E0D6FF" d="M61.222 34.32a4.001 4.001 0 100-8.002 4.001 4.001 0 000 8.002z"></path><path fill="#9875FF" d="M34.004 26.657a1.99 1.99 0 01-.667-.116L1.329 15.162a1.992 1.992 0 01.004-3.755L33.341.114a1.991 1.991 0 011.326 0l32.008 11.293a1.992 1.992 0 01.004 3.755l-32.008 11.38a1.988 1.988 0 01-.667.115z"></path></svg>