<svg xmlns="http://www.w3.org/2000/svg" width="38" height="38" fill="none" viewBox="0 0 38 38" class="h-6 w-6 md:h-9 md:w-9"><mask id="mask0_11192_76578" width="38" height="38" x="0" y="0" maskUnits="userSpaceOnUse" style="mask-type: alpha;"><path fill="#D9D9D9" d="M0 0H38V38H0z"></path></mask><g mask="url(#mask0_11192_76578)"><path fill="#45C881" d="M26.03 5.353c5.695.308 8.55 2.411 8.55 10.226v10.26c0 6.84-1.71 10.26-10.26 10.26H14.06C5.51 36.1 3.8 32.68 3.8 25.84V15.58c0-7.798 2.856-9.918 8.55-10.226"></path><path fill="#fff" fill-rule="evenodd" d="M10.925 19.343c0-.787.638-1.425 1.425-1.425h11.97a1.425 1.425 0 010 2.85H12.35a1.425 1.425 0 01-1.425-1.425zM10.925 26.183c0-.787.638-1.425 1.425-1.425h7.49a1.425 1.425 0 010 2.85h-7.49a1.425 1.425 0 01-1.425-1.425z" clip-rule="evenodd"></path><path fill="#28A963" d="M15.77 8.74h6.84c3.42 0 3.42-1.71 3.42-3.42 0-3.42-1.71-3.42-3.42-3.42h-6.84c-1.71 0-3.42 0-3.42 3.42s1.71 3.42 3.42 3.42z"></path></g></svg>