<svg xmlns="http://www.w3.org/2000/svg" width="103" height="70" fill="none" viewBox="0 0 103 70"><g clip-path="url(#clip0_9507_68565)"><path fill="#fff" d="M38.395 30.493c0-2.987-.07-5.507-.142-7.654h4.694l.25 3.174h.07c1.28-2.38 3.272-3.687 5.797-3.687 3.805 0 7.22 4.34 7.22 11.62 0 8.308-4.02 12.229-7.896 12.229-2.097 0-3.734-1.12-4.516-2.614H43.8v11.34h-5.406V30.494zm5.406 5.367a9.6 9.6 0 00.107 1.493c.355 1.914 1.6 3.36 3.164 3.36 2.348 0 3.735-2.566 3.735-6.44 0-3.64-1.245-6.394-3.663-6.394-1.53 0-2.881 1.494-3.236 3.594-.072.373-.107.84-.107 1.26v3.127z"></path><path stroke="#fff" stroke-width="0.918" d="M38.395 30.493c0-2.987-.07-5.507-.142-7.654h4.694l.25 3.174h.07c1.28-2.38 3.272-3.687 5.797-3.687 3.805 0 7.22 4.34 7.22 11.62 0 8.308-4.02 12.229-7.896 12.229-2.097 0-3.734-1.12-4.516-2.614H43.8v11.34h-5.406V30.494zm5.406 5.367a9.6 9.6 0 00.107 1.493c.355 1.914 1.6 3.36 3.164 3.36 2.348 0 3.735-2.566 3.735-6.44 0-3.64-1.245-6.394-3.663-6.394-1.53 0-2.881 1.494-3.236 3.594-.072.373-.107.84-.107 1.26v3.127z"></path><path fill="#fff" d="M63.93 36.467c.177 2.987 2.382 4.387 4.907 4.387 1.85 0 3.343-.326 4.801-.98l.711 4.807c-1.777.98-3.947 1.447-6.294 1.447-5.904 0-9.283-4.48-9.283-11.668 0-5.787 2.775-12.18 8.785-12.18 5.619 0 7.753 5.74 7.753 11.386 0 1.214-.107 2.288-.178 2.848l-11.202-.047zm6.365-4.854c0-1.68-.569-4.62-3.023-4.62-2.311 0-3.236 2.753-3.378 4.62h6.401z"></path><path stroke="#fff" stroke-width="0.918" d="M63.93 36.467c.177 2.987 2.382 4.387 4.907 4.387 1.85 0 3.343-.326 4.801-.98l.711 4.807c-1.777.98-3.947 1.447-6.294 1.447-5.904 0-9.283-4.48-9.283-11.668 0-5.787 2.775-12.18 8.785-12.18 5.619 0 7.753 5.74 7.753 11.386 0 1.214-.107 2.288-.178 2.848l-11.202-.047zm6.365-4.854c0-1.68-.569-4.62-3.023-4.62-2.311 0-3.236 2.753-3.378 4.62h6.401z"></path><path fill="#fff" d="M82.244 22.84l1.707 3.826c.498 1.167.96 2.287 1.423 3.407h.071c.462-1.26.889-2.38 1.352-3.547l1.529-3.687h5.867l-5.725 10.874 5.796 11.948h-6.116l-1.743-4.107a39.492 39.492 0 01-1.351-3.453h-.107c-.427 1.213-.89 2.333-1.316 3.453l-1.635 4.107h-5.94L81.96 34.04l-5.762-11.2h6.046z"></path><path stroke="#fff" stroke-width="0.918" d="M82.244 22.84l1.707 3.826c.498 1.167.96 2.287 1.423 3.407h.071c.462-1.26.889-2.38 1.352-3.547l1.529-3.687h5.867l-5.725 10.874 5.796 11.948h-6.116l-1.743-4.107a39.492 39.492 0 01-1.351-3.453h-.107c-.427 1.213-.89 2.333-1.316 3.453l-1.635 4.107h-5.94L81.96 34.04l-5.762-11.2h6.046z"></path><mask id="mask0_9507_68565" width="88" height="43" x="8" y="13" maskUnits="userSpaceOnUse" style="mask-type: alpha;"><path fill="#fff" d="M8.453 55.36h86.551V13.738H8.454v41.624z"></path></mask><g mask="url(#mask0_9507_68565)"><mask id="mask1_9507_68565" width="30" height="9" x="8" y="30" maskUnits="userSpaceOnUse" style="mask-type: alpha;"><path fill="#fff" d="M37.205 38.72S26.78 30.314 16.75 30.314c-10.03 0-8.162 5.556-8.162 5.556s.147-2.606 8.309-2.606c8.162 0 20.307 5.458 20.307 5.458z"></path></mask><g fill="#fff" mask="url(#mask1_9507_68565)"><path d="M37.205 38.72S26.78 30.314 16.75 30.314c-10.03 0-8.162 5.556-8.162 5.556s.147-2.606 8.309-2.606c8.162 0 20.307 5.458 20.307 5.458z"></path><path d="M37.135 38.748v-.046h-.091v-.046h-.092v-.046h-.138v-.046h-.092v-.045h-.092v-.046h-.137v-.046H36.4v-.046h-.092v-.046h-.137v-.046h-.092v-.046h-.138v-.046h-.092v-.046h-.092v-.046h-.137v-.045h-.092v-.046h-.138v-.046H35.3v-.046h-.138v-.046h-.092v-.046h-.138v-.046h-.091v-.046h-.138v-.046h-.092v-.045h-.137V37.6h-.092v-.046h-.138v-.046h-.092v-.046h-.137v-.046h-.138v-.046h-.092v-.046h-.137v-.046h-.092v-.046h-.138v-.045h-.138v-.046h-.091v-.046h-.138v-.046h-.138v-.046h-.091v-.046h-.138v-.046h-.138v-.046h-.092v-.045h-.137v-.046h-.138v-.046h-.138v-.046h-.091v-.046h-.138v-.046h-.138v-.046h-.137V36.5h-.092v-.046h-.138v-.046h-.138v-.045h-.137v-.046h-.138v-.046h-.138v-.046h-.137v-.046h-.138v-.046h-.138v-.046h-.091v-.046h-.138v-.046h-.138v-.045h-.137v-.046H29.7v-.046h-.138v-.046h-.137v-.046h-.184v-.046h-.138v-.046h-.137v-.046h-.138v-.046h-.138v-.046h-.137v-.045h-.138v-.046h-.184v-.046h-.137v-.046h-.138v-.046h-.138v-.046h-.183v-.046h-.138v-.046h-.184v-.045h-.137v-.046h-.138v-.046h-.183v-.046h-.138v-.046h-.184v-.046h-.137v-.046h-.184v-.046h-.184v-.046h-.137v-.046h-.184v-.045h-.183v-.046h-.184v-.046h-.138v-.046h-.183v-.046h-.184v-.046h-.183v-.046h-.184v-.046h-.183v-.045h-.23v-.046h-.183v-.046h-.184v-.046h-.23v-.046h-.183v-.046h-.23v-.046h-.229v-.046h-.183v-.046h-.23v-.046h-.275v-.046h-.23v-.045h-.23v-.046h-.274V33.7h-.276v-.046h-.275v-.046h-.321v-.046H20.2v-.046h-.32v-.046h-.414v-.045h-.413v-.046h-.505v-.046h-.734v-.046h-2.157v.046h-.78v.046h-.688v.046h-.413v.045h-.368v.046h-.367v.046h-.275v.046h-.23v.046h-.275v.046h-.184v.046h-.229v.046h-.184v.045h-.183v.046h-.138v.046h-.137v.046h-.138v.046h-.184v.046h-.137v.046h-.092v.046h-.138v.046h-.091v.046h-.092v.046h-.138v.045h-.092v.046h-.092v.046h-.045v.046h-.092v.046h-.092v.046h-.092v.046h-.046v.046h-.091v.045h-.046v.046h-.092v.046H9.37v.046h-.046v.046H9.28v.046h-.092v.046h-.045v.046h-.046v.046H9.05v.046h-.046v.045h-.046v.092h-.046v.046h-.046v.046H8.82v.092h-.046v.046h-.046v.091h-.045v.138h-.046v.138H8.59v.046h-.046v-.184h-.046v-.23h-.046v-1.238H8.5v-.23h.046v-.184h.046V33.7h.046v-.138h.046v-.137h.045v-.092h.046v-.092h.046v-.092h.046v-.092h.046v-.091h.046v-.046h.046v-.092h.046v-.046h.046v-.046h.046v-.092h.045V32.6h.046v-.046h.046v-.092h.046v-.046h.046v-.046h.046v-.046h.046v-.046h.046v-.046h.046v-.046H9.6v-.045h.046v-.046h.046v-.046h.092v-.046h.046v-.046h.046v-.046h.046v-.046h.091v-.046h.046v-.046h.092v-.045h.046v-.046h.092v-.046h.046v-.046h.091v-.046h.092v-.046h.046v-.046h.092v-.046h.092v-.046h.091v-.046h.092v-.045h.092v-.046h.092v-.046h.137v-.046h.092v-.046h.138v-.046h.092v-.046h.137v-.046h.138V30.9h.184v-.045h.137v-.046h.138v-.046h.184v-.046h.183v-.046h.184v-.046h.275v-.046h.23v-.046h.275v-.046h.321v-.045h.321v-.046h.505v-.046h.643v-.046h2.478v.046h.596v.046h.413v.046h.413v.046h.322v.045h.32v.046h.276v.046h.276v.046h.229v.046h.23v.046h.229v.046h.184v.046h.229v.046h.184v.045h.183v.046h.184v.046h.183v.046h.184v.046h.137v.046h.184v.046h.184v.046h.137v.046h.184v.045h.138v.046h.137v.046h.138v.046h.138v.046h.183v.046h.138v.046h.138v.046h.091v.046h.138v.045h.138v.046h.137v.046h.138v.046h.138v.046h.091v.046h.138v.046h.138v.046h.091v.046h.138v.045h.138v.046h.092v.046h.137v.046h.092v.046h.138v.046h.092v.046h.137v.046h.092v.046h.138v.046h.091v.045h.092v.046h.092v.046h.138v.046h.091v.046h.092v.046h.138v.046h.092v.046h.091v.045h.092v.046h.138v.046h.092v.046h.092v.046h.091v.046h.092v.046h.092v.046h.092v.046h.137v.046h.092v.045h.092v.046h.092v.046h.091v.046h.092v.046h.092v.046h.092v.046h.092v.046h.091v.045h.092v.046h.092v.046h.092v.046h.091v.046h.092v.046h.092v.046h.046v.046h.092v.046h.092v.046h.091v.046h.092v.045h.092v.046h.092v.046h.091v.046h.046v.046h.092v.046h.092v.046h.092v.046h.091v.045h.046v.046h.092v.046h.092v.046h.092v.046h.091v.046h.046v.046h.092v.046h.092v.046h.092v.046h.046v.045h.091v.046h.092v.046h.046v.046h.092v.046h.092v.046h.091v.046h.046v.046h.092v.045h.092v.046h.046v.046h.092v.046h.091v.046h.046v.046h.092v.046h.046v.046h.092v.046h.091v.046h.046v.045h.092v.046h.046v.046h.092v.046h.092v.046h.046v.046h.091v.046h.046v.046h.092v.046h.092v.045h.046v.046h.091v.046h.046v.046h.092v.046h.046v.046h.092v.046h.046v.046h.092v.046h.045v.046h.092v.045h.046v.046h.092v.046h.046v.046h.091v.046h.046v.046h.092v.046h.046v.046h.092v.045h.046v.046h.046v.046h.091v.046h.046v.046h.092v.046h.046v.046h.092v.046h.046v.046h.091v.046h.046v.045h.046v.046h.092v.046h.046v.046h.092v.046h.046v.046h.045v.046h.092v.046h.046v.046h.046v.045h.092v.046h.046v.046h.046v.046h.091v.046h.046v.046h.046v.046h.092v.046h.046v.046h.046v.046h.092v.045h.045v.046h.046v.046h.046v.046h.046v.046"></path></g></g><mask id="mask2_9507_68565" width="19" height="7" x="9" y="26" maskUnits="userSpaceOnUse" style="mask-type: alpha;"><path fill="#fff" d="M9.241 31.662s5.789-4.201 18.621.814c0 0-7.08-5.753-12.734-5.753-5.655 0-5.887 4.94-5.887 4.94z"></path></mask><g fill="#fff" mask="url(#mask2_9507_68565)"><path d="M9.241 31.662s5.789-4.201 18.621.814c0 0-7.08-5.753-12.734-5.753-5.655 0-5.887 4.94-5.887 4.94z"></path><path d="M9.241 31.662s5.789-4.201 18.621.814c0 0-7.08-5.753-12.734-5.753-5.655 0-5.887 4.94-5.887 4.94z"></path></g><mask id="mask3_9507_68565" width="13" height="5" x="11" y="24" maskUnits="userSpaceOnUse" style="mask-type: alpha;"><path fill="#fff" d="M11.514 27.152s2.945-2.708 11.576 1.538c0 0-4.363-4.51-7.755-4.51-3.393 0-3.772 1.94-3.821 2.972z"></path></mask><g fill="#fff" mask="url(#mask3_9507_68565)"><path d="M11.514 27.152s2.945-2.708 11.576 1.538c0 0-4.363-4.51-7.755-4.51-3.393 0-3.772 1.94-3.821 2.972z"></path><path d="M11.514 27.152s2.945-2.708 11.576 1.538c0 0-4.363-4.51-7.755-4.51-3.393 0-3.772 1.94-3.821 2.972z"></path></g><mask id="mask4_9507_68565" width="7" height="8" x="8" y="33" maskUnits="userSpaceOnUse" style="mask-type: alpha;"><path fill="#fff" d="M8.589 35.87s1.716 4.014 5.999 4.243c0 0-3.409-3.648-2.966-6.317 0 0-2.712.467-3.033 2.073z"></path></mask><g fill="#fff" mask="url(#mask4_9507_68565)"><path d="M8.589 35.87s1.716 4.014 5.999 4.243c0 0-3.409-3.648-2.966-6.317 0 0-2.712.467-3.033 2.073z"></path><path d="M8.589 35.87s1.716 4.014 5.999 4.243c0 0-3.409-3.648-2.966-6.317 0 0-2.712.467-3.033 2.073z"></path></g><path fill="#fff" d="M23.247 25.593c.355-1.82.746-4.2 1.066-6.067h.107c.356 1.82.782 4.2 1.173 6.067l.85 3.798 6.335 4.439-4.66-19.625h-7.076l-2.283 9.801 4.192 2.938.296-1.351z"></path><path stroke="#fff" stroke-width="0.918" d="M23.247 25.593c.355-1.82.746-4.2 1.066-6.067h.107c.356 1.82.782 4.2 1.173 6.067l.85 3.798 6.335 4.439-4.66-19.625h-7.076l-2.283 9.801 4.192 2.938.296-1.351z"></path><path fill="#fff" d="M16.363 34.293L13.715 45.66h5.62l1.67-8.074.42-2.853c-1.668-.323-3.496-.548-5.062-.441z"></path><path stroke="#fff" stroke-width="0.918" d="M16.363 34.293L13.715 45.66h5.62l1.67-8.074.42-2.853c-1.668-.323-3.496-.548-5.062-.441v0z"></path><path fill="#fff" d="M27.738 36.506l.166 1.081 1.85 8.074h5.832l-1.65-6.948-6.198-2.207z"></path><path stroke="#fff" stroke-width="0.918" d="M27.738 36.506l.166 1.081 1.85 8.074h5.832l-1.65-6.948-6.198-2.207z"></path></g><defs><clipPath id="clip0_9507_68565"><path fill="#fff" d="M0 0H86.547V41.614H0z" transform="translate(8.453 13.746)"></path></clipPath></defs></svg>