<svg xmlns="http://www.w3.org/2000/svg" width="72" height="72" fill="none" viewBox="0 0 72 72" class="h-10 w-10 lg:h-[72px] lg:w-[72px]"><mask id="mask0_9494_67832" width="72" height="72" x="0" y="0" maskUnits="userSpaceOnUse" style="mask-type: alpha;"><path fill="#D9D9D9" d="M0 0H72V72H0z"></path></mask><g mask="url(#mask0_9494_67832)"><path fill="#C7C6FD" d="M61.327 38.303v20.391c0 1.545-1.82 2.798-4.067 2.798H14.74c-2.245 0-4.066-1.252-4.066-2.798V38.303c0-1.545 1.82-2.798 4.067-2.798h42.52c2.245 0 4.066 1.252 4.066 2.798z"></path><path fill="#6572EF" d="M64.236 21.851v19.782a4.067 4.067 0 01-4.067 4.066H11.833a4.067 4.067 0 01-4.067-4.066V21.85a4.067 4.067 0 014.067-4.067h48.336a4.067 4.067 0 014.067 4.067z"></path><path fill="#6572EF" d="M39.194 45.572v6.807a.456.456 0 01-.688.393l-2.251-1.33a.504.504 0 00-.51-.002l-2.304 1.34a.456.456 0 01-.685-.395v-6.813h6.438z"></path><path fill="#fff" d="M41.187 43.434v4.587c0 .6-.486 1.086-1.086 1.086h-8.199c-.6 0-1.086-.486-1.086-1.086v-4.587c0-.6.487-1.086 1.086-1.086h8.2c.599 0 1.085.486 1.085 1.086z"></path><path fill="#C7C6FD" d="M45.404 17.787h-3.253v-3.342a.69.69 0 00-.689-.689H30.538a.69.69 0 00-.689.689v3.342h-3.253V13.97a3.468 3.468 0 013.467-3.468h11.874a3.468 3.468 0 013.467 3.468v3.817z"></path></g></svg>