<svg width="23" height="22" viewBox="0 0 23 22" fill="none" xmlns="https://www.w3.org/2000/svg"><path opacity="0.4" d="M13.4219 5.03244C12.9855 4.95183 12.5848 5.23031 12.5017 5.65626C12.4186 6.08222 12.698 6.4981 13.1225 6.58146C14.4005 6.83062 15.3874 7.81994 15.6375 9.1024V9.10331C15.7087 9.47248 16.0337 9.74088 16.408 9.74088C16.4582 9.74088 16.5084 9.7363 16.5596 9.72714C16.9841 9.64194 17.2634 9.22698 17.1804 8.8001C16.807 6.88467 15.3326 5.40527 13.4219 5.03244Z" fill="white"></path><path opacity="0.4" d="M13.365 1.84052C13.1605 1.81121 12.9551 1.87167 12.7917 2.00174C12.6237 2.13365 12.5187 2.32419 12.4959 2.53763C12.4475 2.96908 12.7588 3.35931 13.1897 3.40786C16.1613 3.73947 18.4709 6.05429 18.805 9.03508C18.8498 9.43447 19.1848 9.73585 19.5847 9.73585C19.6148 9.73585 19.644 9.73402 19.6741 9.73035C19.8832 9.70745 20.0694 9.60394 20.2009 9.43905C20.3314 9.27417 20.3908 9.06897 20.367 8.8592C19.9507 5.14009 17.0723 2.25365 13.365 1.84052Z" fill="white"></path><path fill-rule="evenodd" clip-rule="evenodd" d="M10.3174 11.8914C13.9741 15.547 14.8036 11.3178 17.1318 13.6444C19.3764 15.8884 20.6665 16.3379 17.8226 19.181C17.4664 19.4673 15.2031 22.9114 7.24922 14.9597C-0.705692 7.007 2.73645 4.74141 3.0228 4.38529C5.87354 1.53436 6.31537 2.83193 8.55995 5.07588C10.8882 7.40345 6.66077 8.23571 10.3174 11.8914Z" fill="white"></path></svg>