<svg xmlns="http://www.w3.org/2000/svg" width="103" height="70" fill="none" viewBox="0 0 103 70"><g clip-path="url(#clip0_9507_68483)"><path fill="#fff" d="M101.329 25.958c1.353 7.76-19.77 17.92-47.186 22.695C26.73 53.428 3.41 51.006 2.059 43.242c-1.351-7.76 19.778-17.919 47.19-22.69 27.414-4.78 50.73-2.355 52.08 5.406z"></path><path fill="#12111F" d="M75.527 37.475l-.14-8.067h2.544v10.169h-3.657l-2.54-8.345h-.055l.142 8.345h-2.529v-10.17h3.817l2.363 8.068h.055zM29.283 30.36l-1.407 9.324h-2.775l1.904-10.276h4.571l1.898 10.276H30.71l-1.368-9.323h-.058zM41.266 37.264l1.27-7.856h4.19l.222 10.276H44.38l-.068-9.239h-.053l-1.718 9.239h-2.607l-1.72-9.239h-.055l-.063 9.239h-2.574l.227-10.276h4.194l1.267 7.856h.056zM20.773 36.785c.101.249.07.57.023.762-.086.341-.319.69-1 .69-.646 0-1.036-.37-1.036-.932v-.995h-2.757l-.002.795c0 2.291 1.804 2.984 3.737 2.984 1.86 0 3.39-.635 3.632-2.349.125-.887.031-1.469-.01-1.688-.434-2.151-4.335-2.794-4.625-3.996a1.351 1.351 0 01-.01-.543c.072-.326.296-.688.939-.688.6 0 .955.372.955.933v.635h2.562v-.721c0-2.24-2.01-2.589-3.464-2.589-1.828 0-3.322.604-3.595 2.276-.074.462-.084.873.023 1.39.45 2.097 4.098 2.705 4.628 4.036zM54.188 36.767c.1.246.068.558.023.751-.084.341-.315.684-.992.684-.635 0-1.024-.37-1.024-.92l-.002-.986h-2.728l-.004.785c0 2.268 1.787 2.952 3.7 2.952 1.839 0 3.355-.627 3.595-2.324.126-.88.037-1.454-.008-1.67-.431-2.13-4.292-2.767-4.58-3.959a1.296 1.296 0 01-.01-.532c.074-.33.294-.682.931-.682.596 0 .943.362.943.92v.63h2.543V31.7c0-2.214-1.992-2.562-3.435-2.562-1.807 0-3.289.596-3.556 2.258-.074.456-.082.859.025 1.373.442 2.077 4.055 2.68 4.58 3.998zM62.82 38.147c.712 0 .934-.493.983-.746a2.15 2.15 0 00.025-.392v-7.605h2.599v7.37c.006.19-.012.578-.023.675-.182 1.919-1.699 2.54-3.587 2.54-1.89 0-3.408-.621-3.589-2.54a9.728 9.728 0 01-.022-.674v-7.371h2.596v7.603c0 .134.005.283.025.392.058.253.273.748.992.748zM84.257 38.038c.743 0 1.004-.47 1.051-.743a2.41 2.41 0 00.023-.39v-1.492h-1.054v-1.5h3.645v2.759a7.295 7.295 0 01-.037.678c-.17 1.87-1.794 2.537-3.614 2.537-1.824 0-3.443-.668-3.618-2.537a9.062 9.062 0 01-.037-.678l.002-4.327c0-.182.023-.505.043-.678.228-1.92 1.786-2.539 3.61-2.539 1.822 0 3.418.614 3.608 2.54.032.326.022.677.022.677v.343h-2.59v-.575a2.568 2.568 0 00-.033-.39c-.044-.228-.24-.75-1.026-.75-.75 0-.967.493-1.023.75-.03.136-.043.318-.043.485v4.7c-.002.13.006.273.027.39.041.27.3.74 1.044.74z"></path></g><defs><clipPath id="clip0_9507_68483"><path fill="#fff" d="M0 0H99.392V33H0z" transform="translate(2 18.1)"></path></clipPath></defs></svg>